<svg xmlns="http://www.w3.org/2000/svg" width="199" height="47" viewBox="0 0 195.95 46.46"><path d="M71.33,31a11.82,11.82,0,0,1-15.58,0,10.34,10.34,0,0,1,0-14.78,11.79,11.79,0,0,1,15.58,0,10.34,10.34,0,0,1,0,14.78ZM59.54,19.81A5.45,5.45,0,0,0,58,23.69a5.05,5.05,0,0,0,1.57,3.68,5.64,5.64,0,0,0,4,1.57,5.37,5.37,0,0,0,5.57-5.34,5.32,5.32,0,0,0-1.6-3.79,5.89,5.89,0,0,0-4-1.57A5.69,5.69,0,0,0,59.54,19.81Zm22.6,20.44H77.4v-20h4.74v1.46a4.94,4.94,0,0,1,4.06-1.9,6.58,6.58,0,0,1,4.71,1.93,7.17,7.17,0,0,1,2,5.12,7.21,7.21,0,0,1-2.13,5.25,6.36,6.36,0,0,1-4.53,1.83,5.6,5.6,0,0,1-4.12-1.72Zm.77-15.55A3.23,3.23,0,0,0,82,26.89,3.2,3.2,0,0,0,82.91,29a3,3,0,0,0,2.13.88,2.85,2.85,0,0,0,2.1-.88,3.14,3.14,0,0,0,.92-2.11,3.19,3.19,0,0,0-.92-2.19,2.86,2.86,0,0,0-2.1-.89A3,3,0,0,0,82.91,24.7Zm26.92,3H100a3.35,3.35,0,0,0,.83,2.22,2.66,2.66,0,0,0,2,.66,3.75,3.75,0,0,0,1.54-.36,2.25,2.25,0,0,0,.83-.89h4.53a6,6,0,0,1-1.6,2.73,7.24,7.24,0,0,1-5.39,1.83,7.5,7.5,0,0,1-5.48-2,6.94,6.94,0,0,1-2-5,7,7,0,0,1,2-5.12,7.42,7.42,0,0,1,5.42-1.93,7.25,7.25,0,0,1,5.09,1.81,7.4,7.4,0,0,1,2.11,5.57ZM105.47,25a3.17,3.17,0,0,0-.77-1.43,2.76,2.76,0,0,0-2-.71,2.56,2.56,0,0,0-1.93.71,2.7,2.7,0,0,0-.71,1.43Zm6.77-4.78H117v1.66a5,5,0,0,1,4.21-1.95,5.33,5.33,0,0,1,3.91,1.42,4.55,4.55,0,0,1,1.25,3.7v8.42h-4.74v-6.7a3.74,3.74,0,0,0-.6-2.57,2,2,0,0,0-1.51-.57,2.64,2.64,0,0,0-1.75.62,3.09,3.09,0,0,0-.77,2.11v7.11h-4.74Zm22.16,6.7v6.55h-5.13V13.71h8.18a6.82,6.82,0,0,1,5,1.77,6.13,6.13,0,0,1,1.83,4.8,6.39,6.39,0,0,1-1.75,4.92,6.57,6.57,0,0,1-4.91,1.72Zm0-4.15h1.71a3.37,3.37,0,0,0,2.17-.62,2.26,2.26,0,0,0,.65-1.81,2.39,2.39,0,0,0-.59-1.77,3,3,0,0,0-2.2-.72H134.4Zm21.76-2.55h4.74V33.47h-4.74V32a4.92,4.92,0,0,1-4.11,1.89,6.32,6.32,0,0,1-4.77-2.1,6.65,6.65,0,0,1-1.9-4.86,7.33,7.33,0,0,1,2-5.3,6.82,6.82,0,0,1,4.77-1.87,5.23,5.23,0,0,1,4,1.72Zm-5,4.45a3,3,0,0,0,0,4.33,3.33,3.33,0,0,0,2.13.88,3,3,0,0,0,2.13-.91,2.88,2.88,0,0,0,.89-2.14,2.93,2.93,0,0,0-.92-2.16,3,3,0,0,0-2.13-.86A3,3,0,0,0,151.19,24.67Zm18.77,7-6.4-11.44h5.51L172.59,27,176,20.22h5.42l-10.63,20h-5.31Zm27.51,1.81h-4.74V32a4.84,4.84,0,0,1-4,1.89,6.36,6.36,0,0,1-4.65-1.83A7.33,7.33,0,0,1,182,26.8a7.22,7.22,0,0,1,2.16-5.24,6.74,6.74,0,0,1,4.68-1.78,5.23,5.23,0,0,1,3.94,1.72V11.87h4.74Zm-5.6-4.39a3.14,3.14,0,0,0,1-2.25A3.42,3.42,0,0,0,192,24.7a3,3,0,0,0-4.27,0,3.25,3.25,0,0,0-.91,2.25,3,3,0,0,0,.91,2.08,3,3,0,0,0,2.11.88A3.19,3.19,0,0,0,191.87,29.08Z" transform="translate(-1.53 -0.27)" style="fill:#154460"/><path d="M24.28.28A23.22,23.22,0,0,0,12.39,43.16a22.86,22.86,0,0,0,5,2.37h0V40.18h0V33.42A12.36,12.36,0,1,0,12.4,23h0V36.89a18.23,18.23,0,1,1,12.37,4.84,17,17,0,0,1-2.38-.16v5A23.23,23.23,0,1,0,24.28.28Zm.48,15.89a7.33,7.33,0,1,1-7.34,7.33A7.33,7.33,0,0,1,24.76,16.17Z" transform="translate(-1.53 -0.27)" style="fill:#154460"/></svg>